# xmcd CD database file
#
# Track frame offsets:
#	150
#	25790
#	51369
#	80022
#	112720
#	137460
#	168775
#	194399
#	225419
#
# Disc length: 3387 seconds
#
# Revision: 0
# Processed by: cddbd v1.5.1PL2 Copyright (c) Steve Scherf et al.
# Submitted via: CDex 1.60beta1
#
DISCID=630d3909
DTITLE=Ralph Reichert/Jerry Tilitz Quintet - Back To Back
DYEAR=2002
DGENRE=Jazz
TTITLE0=Nik's Got The Knack
TTITLE1=Crazy Rhythm
TTITLE2=Lush Life
TTITLE3=Bajan Bacchanal
TTITLE4=Blues In The Closet
TTITLE5=Yesterdays
TTITLE6=Alfie
TTITLE7=Red, White And The Blues
TTITLE8=Nik's Got The Knack (Alternate Take)
EXTD=YEAR: 2002
EXTT0=
EXTT1=
EXTT2=
EXTT3=
EXTT4=
EXTT5=
EXTT6=
EXTT7=
EXTT8=
PLAYORDER=
